<svg version="1.2" xmlns="http://www.w3.org/2000/svg" viewBox="0 0 768 769" width="768" height="769">
	<title>parth</title>
	<style>
		.s0 { fill: #1aede6 } 
		.s1 { fill: #ffffff } 
	</style>
	<g>
		<g>
			<g>
				<path class="s0" d="m57.4 411.8q30.4-5.7 30.4-31.3 0-11.3-3-38.6-3-29.2-3-42.3 0-21.4 12.1-32.7 12-11.3 32.3-11.3h17.2v23.5h-12.2q-11.6 0-17.2 5.2-5.7 5.2-5.7 17.1 0 8.6 1.2 21.3 1.2 12.6 1.5 17.1 3 28.5 3 41.6 0 15.8-7.9 26.4-7.9 10.5-24.3 14.1v0.6q16.4 3.6 24.3 14.3 7.9 10.7 7.9 26.4 0 13.1-3 41.7-0.3 4.4-1.5 17.1-1.2 12.6-1.2 21.2 0 11.9 5.7 17.2 5.6 5.2 17.2 5.2h12.2v23.5h-17.2q-20.3 0-32.3-11.4-12.1-11.3-12.1-32.7 0-13.1 3-42.2 3-27.4 3-38.7 0-25.6-30.4-31.2z"/>
			</g>
		</g>
	</g>
	<g>
		<g>
			<g>
				<path class="s0" d="m719.3 435.8q-30.6 5.7-30.6 31.4 0 11.4 3 39 3 29.3 3 42.5 0 21.6-12.1 32.9-12.2 11.4-32.5 11.4h-17.4v-23.6h12.3q11.7 0 17.3-5.3 5.7-5.2 5.7-17.2 0-8.7-1.2-21.4-1.2-12.8-1.5-17.2-3-28.8-3-42 0-15.9 8-26.6 7.9-10.8 24.4-14.4v-0.6q-16.5-3.6-24.4-14.2-8-10.7-8-26.5 0-13.2 3-42 0.3-4.5 1.5-17.2 1.2-12.7 1.2-21.4 0-12-5.7-17.2-5.6-5.3-17.3-5.3h-12.3v-23.6h17.4q20.3 0 32.5 11.4 12.1 11.3 12.1 32.9 0 13.2-3 42.5-3 27.6-3 39 0 25.7 30.6 31.4z"/>
			</g>
			<path id="CHAKIT GUPTA" class="s1" aria-label="CHAKIT
GUPTA"  d="m215.6 306.5c-23.5 0-39.1 18.3-39.1 43.5 0 24.2 13.4 42.7 37.5 42.7 21.9 0 33-13.1 34.6-28.1l0.1-1.2h-10.3l-0.3 1.2c-2.4 11.9-9.7 19.9-23.5 19.9-16.3 0-26.6-14.6-26.6-35 0-20.1 10.4-34.8 27.3-34.8 13.8 0 21.2 8 23.6 19.9l0.2 1.2h10.3l-0.1-1.2c-1.7-16.2-12.7-28.1-33.7-28.1zm117.3 1.7h-10.3v37.9h-45.6v-37.9h-10.3v82.8h10.3v-36.2h45.6v36.2h10.3zm64.1 53.5l9.9 29.3h11.1l-28.5-82.8h-14l-29.7 82.8h11l9.7-29.3zm-27.6-8.4l12.9-36.9 12 36.9zm87.3-4.7l37.6-40.4h-12.1l-40.9 44v-44h-10.4v82.8h10.4v-26.9l7.9-8.5 28.4 35.4h14.5zm57.6 42.4v-82.8h-10.3v82.8zm82.8-74.4v-8.4h-69.3v8.4h29.5v74.4h10.3v-74.4zm-356.1 178.4v8.4h19.3c0 14.8-9.9 25.1-23.4 25.1-16.3 0-26.6-14.7-26.6-35.1 0-20 10.4-34.8 27.3-34.8 13.8 0 21.2 8.1 23.6 20l0.2 1.2h10.3l-0.1-1.2c-1.7-16.2-12.7-28.1-33.7-28.1-23.5 0-39.1 18.2-39.1 43.4 0 24.3 13.4 42.7 37.5 42.7 9.5 0 16.8-3.1 21.5-8.4l3.7-7.6v14.4h9.1v-40zm110.8-42.8h-10.3v51.2c0 2.6 0 5.2-0.3 7.3-0.9 10.5-7.8 17.8-20.5 17.8-12.7 0-19.5-7.3-20.5-17.8-0.2-2.1-0.2-4.7-0.2-7.3v-51.2h-10.4v52.2c0 2.6 0 5 0.3 7.4 1.2 13.8 10.5 24.8 30.8 24.8 20.3 0 29.7-11 30.9-24.8 0.2-2.4 0.2-4.8 0.2-7.4zm56.9 0.4c-3.7-0.4-6.6-0.4-10.8-0.4h-25.7v82.8h10.3v-33.9h15.4c4.2 0 7.1 0 10.8-0.5 12-1.5 21.5-9.9 21.5-24 0-14-8.3-22.3-21.5-24zm-0.6 39.3c-2.3 0.5-5.5 0.6-9.3 0.6h-16.3v-31.7h16.3c3.8 0 7 0.1 9.3 0.6 5.9 1.3 11 5.6 11 15.2 0 9.6-5.1 14-11 15.3zm97.3-31.3v-8.4h-69.4v8.4h29.6v74.4h10.3v-74.4zm47.4 45.1l9.8 29.3h11.2l-28.6-82.8h-13.9l-29.8 82.8h11.1l9.7-29.3zm-27.6-8.4l12.8-37 12 37z"/>
		</g>
	</g>
</svg>